<mxfile type="github" version="20.8.13" etag="BIPha9DJGeMnMjZIj6mm" agent="5.0 (Windows NT 10.0; Win64; x64) AppleWebKit/537.36 (KHTML, like Gecko) Chrome/64.0.3282.140 Safari/537.36 Edge/17.17134" modified="2023-01-29T07:58:10.579Z" host="app.diagrams.net">
  <diagram id="JOrlyePDWZIbf2m1sVJF" name="第 1 页">
    <mxGraphModel grid="1" shadow="0" math="0" pageHeight="1169" pageWidth="827" pageScale="1" page="1" fold="1" arrows="1" connect="1" tooltips="1" guides="1" gridSize="10" dy="264" dx="259">
      <root>
        <mxCell id="0" />
        <mxCell id="1" parent="0" />
        <mxCell id="vhXfBigJzkR24srd2eFZ-1" value="&lt;font style=&quot;font-size: 11px;&quot;&gt;Branch Node&lt;/font&gt;" parent="1" vertex="1" style="rounded=0;whiteSpace=wrap;html=1;movable=1;resizable=1;rotatable=1;deletable=1;editable=1;connectable=1;">
          <mxGeometry as="geometry" height="30" width="160" y="50" x="150" />
        </mxCell>
        <mxCell id="vhXfBigJzkR24srd2eFZ-4" value="key1" parent="1" vertex="1" style="rounded=0;whiteSpace=wrap;html=1;movable=1;resizable=1;rotatable=1;deletable=1;editable=1;connectable=1;">
          <mxGeometry as="geometry" height="20" width="40" y="80" x="150" />
        </mxCell>
        <mxCell id="vhXfBigJzkR24srd2eFZ-22" parent="1" style="edgeStyle=none;rounded=0;orthogonalLoop=1;jettySize=auto;html=1;entryX=0.426;entryY=-0.066;entryDx=0;entryDy=0;entryPerimeter=0;fontSize=11;exitX=0.5;exitY=1;exitDx=0;exitDy=0;" target="vhXfBigJzkR24srd2eFZ-12" source="vhXfBigJzkR24srd2eFZ-7" edge="1">
          <mxGeometry as="geometry" relative="1">
            <Array as="points">
              <mxPoint y="130" x="210" />
              <mxPoint y="130" x="88" />
            </Array>
          </mxGeometry>
        </mxCell>
        <mxCell id="vhXfBigJzkR24srd2eFZ-7" value="pageid" parent="1" vertex="1" style="rounded=0;whiteSpace=wrap;html=1;movable=1;resizable=1;rotatable=1;deletable=1;editable=1;connectable=1;">
          <mxGeometry as="geometry" height="20" width="40" y="80" x="190" />
        </mxCell>
        <mxCell id="vhXfBigJzkR24srd2eFZ-9" value="pageid" parent="1" vertex="1" style="rounded=0;whiteSpace=wrap;html=1;movable=1;resizable=1;rotatable=1;deletable=1;editable=1;connectable=1;">
          <mxGeometry as="geometry" height="20" width="40" y="80" x="270" />
        </mxCell>
        <mxCell id="vhXfBigJzkR24srd2eFZ-23" parent="1" style="edgeStyle=none;rounded=0;orthogonalLoop=1;jettySize=auto;html=1;entryX=0.5;entryY=0;entryDx=0;entryDy=0;fontSize=11;exitX=0.5;exitY=1;exitDx=0;exitDy=0;" target="vhXfBigJzkR24srd2eFZ-17" source="vhXfBigJzkR24srd2eFZ-9" edge="1">
          <mxGeometry as="geometry" relative="1">
            <Array as="points">
              <mxPoint y="130" x="290" />
              <mxPoint y="130" x="380" />
            </Array>
          </mxGeometry>
        </mxCell>
        <mxCell id="vhXfBigJzkR24srd2eFZ-11" value="key2" parent="1" vertex="1" style="rounded=0;whiteSpace=wrap;html=1;movable=1;resizable=1;rotatable=1;deletable=1;editable=1;connectable=1;">
          <mxGeometry as="geometry" height="20" width="40" y="80" x="230" />
        </mxCell>
        <mxCell id="vhXfBigJzkR24srd2eFZ-12" value="&lt;font style=&quot;font-size: 11px;&quot;&gt;Leaf Node&lt;/font&gt;" parent="1" vertex="1" style="rounded=0;whiteSpace=wrap;html=1;movable=1;resizable=1;rotatable=1;deletable=1;editable=1;connectable=1;">
          <mxGeometry as="geometry" height="30" width="160" y="160" x="20" />
        </mxCell>
        <mxCell id="vhXfBigJzkR24srd2eFZ-13" value="key3" parent="1" vertex="1" style="rounded=0;whiteSpace=wrap;html=1;movable=1;resizable=1;rotatable=1;deletable=1;editable=1;connectable=1;">
          <mxGeometry as="geometry" height="20" width="40" y="190" x="20" />
        </mxCell>
        <mxCell id="vhXfBigJzkR24srd2eFZ-14" value="val3" parent="1" vertex="1" style="rounded=0;whiteSpace=wrap;html=1;movable=1;resizable=1;rotatable=1;deletable=1;editable=1;connectable=1;">
          <mxGeometry as="geometry" height="20" width="40" y="190" x="60" />
        </mxCell>
        <mxCell id="vhXfBigJzkR24srd2eFZ-15" value="val4" parent="1" vertex="1" style="rounded=0;whiteSpace=wrap;html=1;movable=1;resizable=1;rotatable=1;deletable=1;editable=1;connectable=1;">
          <mxGeometry as="geometry" height="20" width="40" y="190" x="140" />
        </mxCell>
        <mxCell id="vhXfBigJzkR24srd2eFZ-16" value="key4" parent="1" vertex="1" style="rounded=0;whiteSpace=wrap;html=1;movable=1;resizable=1;rotatable=1;deletable=1;editable=1;connectable=1;">
          <mxGeometry as="geometry" height="20" width="40" y="190" x="100" />
        </mxCell>
        <mxCell id="vhXfBigJzkR24srd2eFZ-17" value="&lt;font style=&quot;font-size: 11px;&quot;&gt;Leaf Node&lt;/font&gt;" parent="1" vertex="1" style="rounded=0;whiteSpace=wrap;html=1;movable=1;resizable=1;rotatable=1;deletable=1;editable=1;connectable=1;">
          <mxGeometry as="geometry" height="30" width="160" y="160" x="300" />
        </mxCell>
        <mxCell id="vhXfBigJzkR24srd2eFZ-18" value="key5" parent="1" vertex="1" style="rounded=0;whiteSpace=wrap;html=1;movable=1;resizable=1;rotatable=1;deletable=1;editable=1;connectable=1;">
          <mxGeometry as="geometry" height="20" width="40" y="190" x="300" />
        </mxCell>
        <mxCell id="vhXfBigJzkR24srd2eFZ-19" value="val5" parent="1" vertex="1" style="rounded=0;whiteSpace=wrap;html=1;movable=1;resizable=1;rotatable=1;deletable=1;editable=1;connectable=1;">
          <mxGeometry as="geometry" height="20" width="40" y="190" x="340" />
        </mxCell>
        <mxCell id="vhXfBigJzkR24srd2eFZ-20" value="val6" parent="1" vertex="1" style="rounded=0;whiteSpace=wrap;html=1;movable=1;resizable=1;rotatable=1;deletable=1;editable=1;connectable=1;">
          <mxGeometry as="geometry" height="20" width="40" y="190" x="420" />
        </mxCell>
        <mxCell id="vhXfBigJzkR24srd2eFZ-21" value="key6" parent="1" vertex="1" style="rounded=0;whiteSpace=wrap;html=1;movable=1;resizable=1;rotatable=1;deletable=1;editable=1;connectable=1;">
          <mxGeometry as="geometry" height="20" width="40" y="190" x="380" />
        </mxCell>
        <mxCell id="vhXfBigJzkR24srd2eFZ-41" parent="1" style="edgeStyle=none;rounded=0;orthogonalLoop=1;jettySize=auto;html=1;entryX=0.5;entryY=0;entryDx=0;entryDy=0;fontSize=11;" target="vhXfBigJzkR24srd2eFZ-38" source="vhXfBigJzkR24srd2eFZ-24" edge="1">
          <mxGeometry as="geometry" relative="1" />
        </mxCell>
        <mxCell id="vhXfBigJzkR24srd2eFZ-42" parent="1" style="edgeStyle=none;rounded=0;orthogonalLoop=1;jettySize=auto;html=1;exitX=0;exitY=1;exitDx=0;exitDy=0;entryX=1;entryY=0.25;entryDx=0;entryDy=0;fontSize=11;" target="vhXfBigJzkR24srd2eFZ-35" source="vhXfBigJzkR24srd2eFZ-24" edge="1">
          <mxGeometry as="geometry" relative="1" />
        </mxCell>
        <mxCell id="vhXfBigJzkR24srd2eFZ-43" parent="1" style="edgeStyle=none;rounded=0;orthogonalLoop=1;jettySize=auto;html=1;exitX=1;exitY=1;exitDx=0;exitDy=0;entryX=0.5;entryY=0;entryDx=0;entryDy=0;fontSize=11;" target="vhXfBigJzkR24srd2eFZ-39" source="vhXfBigJzkR24srd2eFZ-24" edge="1">
          <mxGeometry as="geometry" relative="1" />
        </mxCell>
        <mxCell id="vhXfBigJzkR24srd2eFZ-24" value="a" parent="1" vertex="1" style="text;strokeColor=none;align=center;fillColor=none;html=1;verticalAlign=middle;whiteSpace=wrap;rounded=0;fontSize=11;">
          <mxGeometry as="geometry" height="20" width="22" y="310" x="89" />
        </mxCell>
        <mxCell id="vhXfBigJzkR24srd2eFZ-32" value="c" parent="1" vertex="1" style="rounded=0;whiteSpace=wrap;html=1;fontSize=11;">
          <mxGeometry as="geometry" height="20" width="23" y="460" x="165" />
        </mxCell>
        <mxCell id="vhXfBigJzkR24srd2eFZ-35" value="b" parent="1" vertex="1" style="text;strokeColor=none;align=center;fillColor=none;html=1;verticalAlign=middle;whiteSpace=wrap;rounded=0;fontSize=11;">
          <mxGeometry as="geometry" height="20" width="22" y="390" x="29" />
        </mxCell>
        <mxCell id="vhXfBigJzkR24srd2eFZ-38" value="c" parent="1" vertex="1" style="text;strokeColor=none;align=center;fillColor=none;html=1;verticalAlign=middle;whiteSpace=wrap;rounded=0;fontSize=11;">
          <mxGeometry as="geometry" height="20" width="22" y="390" x="89" />
        </mxCell>
        <mxCell id="vhXfBigJzkR24srd2eFZ-39" value="d" parent="1" vertex="1" style="text;strokeColor=none;align=center;fillColor=none;html=1;verticalAlign=middle;whiteSpace=wrap;rounded=0;fontSize=11;">
          <mxGeometry as="geometry" height="20" width="22" y="390" x="150" />
        </mxCell>
        <mxCell id="vhXfBigJzkR24srd2eFZ-72" parent="1" style="edgeStyle=none;rounded=0;orthogonalLoop=1;jettySize=auto;html=1;entryX=0.5;entryY=0;entryDx=0;entryDy=0;fontSize=11;" target="vhXfBigJzkR24srd2eFZ-77" source="vhXfBigJzkR24srd2eFZ-75" edge="1">
          <mxGeometry as="geometry" relative="1" />
        </mxCell>
        <mxCell id="vhXfBigJzkR24srd2eFZ-73" parent="1" style="edgeStyle=none;rounded=0;orthogonalLoop=1;jettySize=auto;html=1;exitX=0;exitY=1;exitDx=0;exitDy=0;entryX=1;entryY=0.25;entryDx=0;entryDy=0;fontSize=11;" target="vhXfBigJzkR24srd2eFZ-76" source="vhXfBigJzkR24srd2eFZ-75" edge="1">
          <mxGeometry as="geometry" relative="1" />
        </mxCell>
        <mxCell id="vhXfBigJzkR24srd2eFZ-74" parent="1" style="edgeStyle=none;rounded=0;orthogonalLoop=1;jettySize=auto;html=1;exitX=1;exitY=1;exitDx=0;exitDy=0;entryX=0.5;entryY=0;entryDx=0;entryDy=0;fontSize=11;" target="vhXfBigJzkR24srd2eFZ-78" source="vhXfBigJzkR24srd2eFZ-75" edge="1">
          <mxGeometry as="geometry" relative="1" />
        </mxCell>
        <mxCell id="vhXfBigJzkR24srd2eFZ-75" value="a" parent="1" vertex="1" style="text;strokeColor=none;align=center;fillColor=none;html=1;verticalAlign=middle;whiteSpace=wrap;rounded=0;fontSize=11;">
          <mxGeometry as="geometry" height="20" width="22" y="300" x="257" />
        </mxCell>
        <mxCell id="vhXfBigJzkR24srd2eFZ-76" value="b" parent="1" vertex="1" style="text;strokeColor=none;align=center;fillColor=none;html=1;verticalAlign=middle;whiteSpace=wrap;rounded=0;fontSize=11;">
          <mxGeometry as="geometry" height="20" width="22" y="380" x="197" />
        </mxCell>
        <mxCell id="vhXfBigJzkR24srd2eFZ-77" value="c" parent="1" vertex="1" style="text;strokeColor=none;align=center;fillColor=none;html=1;verticalAlign=middle;whiteSpace=wrap;rounded=0;fontSize=11;">
          <mxGeometry as="geometry" height="20" width="22" y="380" x="257" />
        </mxCell>
        <mxCell id="vhXfBigJzkR24srd2eFZ-78" value="d" parent="1" vertex="1" style="text;strokeColor=none;align=center;fillColor=none;html=1;verticalAlign=middle;whiteSpace=wrap;rounded=0;fontSize=11;">
          <mxGeometry as="geometry" height="20" width="22" y="380" x="318" />
        </mxCell>
        <mxCell id="vhXfBigJzkR24srd2eFZ-79" value="a" parent="1" vertex="1" style="rounded=0;whiteSpace=wrap;html=1;fontSize=11;">
          <mxGeometry as="geometry" height="20" width="23" y="460" x="119" />
        </mxCell>
        <mxCell id="vhXfBigJzkR24srd2eFZ-80" value="b" parent="1" vertex="1" style="rounded=0;whiteSpace=wrap;html=1;fontSize=11;">
          <mxGeometry as="geometry" height="20" width="23" y="460" x="142" />
        </mxCell>
        <mxCell id="vhXfBigJzkR24srd2eFZ-81" value="d" parent="1" vertex="1" style="rounded=0;whiteSpace=wrap;html=1;fontSize=11;">
          <mxGeometry as="geometry" height="20" width="23" y="460" x="188" />
        </mxCell>
        <mxCell id="vhXfBigJzkR24srd2eFZ-83" value="a&#39;" parent="1" vertex="1" style="rounded=0;whiteSpace=wrap;html=1;fontSize=11;">
          <mxGeometry as="geometry" height="20" width="23" y="460" x="211" />
        </mxCell>
        <mxCell id="vhXfBigJzkR24srd2eFZ-85" value="d&#39;" parent="1" vertex="1" style="rounded=0;whiteSpace=wrap;html=1;fontSize=11;">
          <mxGeometry as="geometry" height="20" width="23" y="460" x="234" />
        </mxCell>
        <mxCell id="vhXfBigJzkR24srd2eFZ-86" value="&lt;font style=&quot;font-size: 7px;&quot;&gt;freelist&lt;/font&gt;" parent="1" vertex="1" style="rounded=0;whiteSpace=wrap;html=1;fontSize=11;">
          <mxGeometry as="geometry" height="20" width="23" y="460" x="96" />
        </mxCell>
        <mxCell id="7uClIL1c8tzAW1SbDXco-1" value="&lt;font style=&quot;font-size: 7px;&quot;&gt;meta1&lt;/font&gt;" parent="1" vertex="1" style="rounded=0;whiteSpace=wrap;html=1;fontSize=11;">
          <mxGeometry as="geometry" height="20" width="23" y="460" x="73" />
        </mxCell>
        <mxCell id="7uClIL1c8tzAW1SbDXco-3" value="&lt;font style=&quot;font-size: 7px;&quot;&gt;meta0&lt;/font&gt;" parent="1" vertex="1" style="rounded=0;whiteSpace=wrap;html=1;fontSize=11;">
          <mxGeometry as="geometry" height="20" width="23" y="460" x="50" />
        </mxCell>
      </root>
    </mxGraphModel>
  </diagram>
</mxfile>
